<svg xmlns="http://www.w3.org/2000/svg" xmlns:xlink="http://www.w3.org/1999/xlink" width="500" zoomAndPan="magnify" viewBox="0 0 375 374.999991" height="500" preserveAspectRatio="xMidYMid meet" version="1.0"><defs><clipPath id="d0c819f3d7"><path d="M 58 193 L 106 193 L 106 241.035156 L 58 241.035156 Z M 58 193 " clip-rule="nonzero"/></clipPath><clipPath id="27b4b03a36"><path d="M 267 193 L 316 193 L 316 241.035156 L 267 241.035156 Z M 267 193 " clip-rule="nonzero"/></clipPath></defs><g clip-path="url(#d0c819f3d7)"><path fill="#fff" d="M 81.929688 193.972656 C 68.9375 193.972656 58.371094 204.539062 58.371094 217.53125 C 58.371094 230.523438 68.9375 241.089844 81.929688 241.089844 C 94.921875 241.089844 105.496094 230.523438 105.496094 217.53125 C 105.496094 204.539062 94.921875 193.972656 81.929688 193.972656 " fill-opacity="1" fill-rule="nonzero"/></g><g clip-path="url(#27b4b03a36)"><path fill="#fff" d="M 291.496094 193.972656 C 278.503906 193.972656 267.9375 204.539062 267.9375 217.53125 C 267.9375 230.523438 278.503906 241.089844 291.496094 241.089844 C 304.488281 241.089844 315.0625 230.523438 315.0625 217.53125 C 315.0625 204.539062 304.488281 193.972656 291.496094 193.972656 " fill-opacity="1" fill-rule="nonzero"/></g><path fill="#fff" d="M 164.457031 166.117188 L 182.9375 145.464844 C 185.53125 142.5625 189.105469 140.78125 192.976562 140.398438 C 207.3125 138.980469 243.050781 138.675781 267.347656 166.117188 Z M 242.386719 196.367188 L 227.613281 196.367188 C 223.800781 196.367188 220.714844 193.277344 220.714844 189.464844 C 220.714844 185.652344 223.800781 182.5625 227.613281 182.5625 L 242.386719 182.5625 C 246.195312 182.5625 249.289062 185.652344 249.289062 189.464844 C 249.289062 193.277344 246.195312 196.367188 242.386719 196.367188 Z M 364.777344 171.746094 L 364.777344 166.648438 L 322.308594 172.191406 C 307.308594 157.972656 290.195312 144.710938 273.988281 135.816406 C 243.859375 119.277344 181.566406 115.933594 166.835938 130.621094 C 158.535156 138.894531 136.476562 161.390625 136.476562 161.390625 C -9.640625 155.957031 -11.945312 235.71875 27.273438 235.71875 L 47.089844 235.71875 C 44.21875 230.246094 42.445312 224.121094 42.445312 217.53125 C 42.445312 195.757812 60.160156 178.042969 81.929688 178.042969 C 103.703125 178.042969 121.421875 195.757812 121.421875 217.53125 C 121.421875 224.121094 119.644531 230.246094 116.773438 235.71875 L 256.65625 235.71875 C 253.785156 230.246094 252.011719 224.121094 252.011719 217.53125 C 252.011719 195.757812 269.726562 178.042969 291.496094 178.042969 C 313.269531 178.042969 330.988281 195.757812 330.988281 217.53125 C 330.988281 224.121094 329.210938 230.246094 326.339844 235.71875 L 355.566406 235.71875 C 361.390625 235.71875 365.433594 229.828125 363.195312 224.449219 C 359.222656 214.886719 350.789062 202.800781 339.847656 190.363281 L 346.167969 190.363281 C 356.445312 190.363281 364.777344 182.027344 364.777344 171.746094 " fill-opacity="1" fill-rule="nonzero"/></svg>